<svg width="33" height="33" viewBox="0 0 33 33" fill="none" xmlns="http://www.w3.org/2000/svg">
<path d="M26.125 15.125H17.875V6.875C17.875 6.51033 17.7301 6.16059 17.4723 5.90273C17.2144 5.64487 16.8647 5.5 16.5 5.5C16.1353 5.5 15.7856 5.64487 15.5277 5.90273C15.2699 6.16059 15.125 6.51033 15.125 6.875V15.125H6.875C6.51033 15.125 6.16059 15.2699 5.90273 15.5277C5.64487 15.7856 5.5 16.1353 5.5 16.5C5.5 16.8647 5.64487 17.2144 5.90273 17.4723C6.16059 17.7301 6.51033 17.875 6.875 17.875H15.125V26.125C15.125 26.4897 15.2699 26.8394 15.5277 27.0973C15.7856 27.3551 16.1353 27.5 16.5 27.5C16.8647 27.5 17.2144 27.3551 17.4723 27.0973C17.7301 26.8394 17.875 26.4897 17.875 26.125V17.875H26.125C26.4897 17.875 26.8394 17.7301 27.0973 17.4723C27.3551 17.2144 27.5 16.8647 27.5 16.5C27.5 16.1353 27.3551 15.7856 27.0973 15.5277C26.8394 15.2699 26.4897 15.125 26.125 15.125Z" fill="white"/>
</svg>
